<?xml version="1.0" encoding="UTF-8" standalone="no"?><svg xmlns="http://www.w3.org/2000/svg" xmlns:xlink="http://www.w3.org/1999/xlink" contentScriptType="application/ecmascript" contentStyleType="text/css" height="301px" preserveAspectRatio="none" style="width:516px;height:301px;" version="1.1" viewBox="0 0 516 301" width="516px" zoomAndPan="magnify"><defs><filter height="300%" id="frws1t8" width="300%" x="-1" y="-1"><feGaussianBlur result="blurOut" stdDeviation="2.0"/><feColorMatrix in="blurOut" result="blurOut2" type="matrix" values="0 0 0 0 0 0 0 0 0 0 0 0 0 0 0 0 0 0 .4 0"/><feOffset dx="4.0" dy="4.0" in="blurOut2" result="blurOut3"/><feBlend in="SourceGraphic" in2="blurOut3" mode="normal"/></filter></defs><g><!--class TTaskTreeManager--><rect fill="#F8F8F8" filter="url(#frws1t8)" height="48" style="stroke: #383838; stroke-width: 1.5;" width="151" x="6" y="40"/><ellipse cx="21" cy="56" fill="#C2C2C2" rx="11" ry="11" style="stroke: #383838; stroke-width: 1.0;"/><path d="M23.9688,61.6406 Q23.3906,61.9375 22.75,62.0859 Q22.1094,62.2344 21.4063,62.2344 Q18.9063,62.2344 17.5859,60.5859 Q16.2656,58.9375 16.2656,55.8125 Q16.2656,52.6875 17.5859,51.0313 Q18.9063,49.375 21.4063,49.375 Q22.1094,49.375 22.7578,49.5313 Q23.4063,49.6875 23.9688,49.9844 L23.9688,52.7031 Q23.3438,52.125 22.75,51.8516 Q22.1563,51.5781 21.5313,51.5781 Q20.1875,51.5781 19.5,52.6484 Q18.8125,53.7188 18.8125,55.8125 Q18.8125,57.9063 19.5,58.9766 Q20.1875,60.0469 21.5313,60.0469 Q22.1563,60.0469 22.75,59.7734 Q23.3438,59.5 23.9688,58.9219 L23.9688,61.6406 Z "/><text fill="#000000" font-family="sans-serif" font-size="12" lengthAdjust="spacingAndGlyphs" textLength="119" x="35" y="60.1543">TTaskTreeManager</text><line style="stroke: #383838; stroke-width: 1.5;" x1="7" x2="156" y1="72" y2="72"/><line style="stroke: #383838; stroke-width: 1.5;" x1="7" x2="156" y1="80" y2="80"/><!--class TAbstractSource--><rect fill="#F8F8F8" filter="url(#frws1t8)" height="112.002" style="stroke: #383838; stroke-width: 1.5;" width="166" x="192.25" y="8"/><ellipse cx="220.75" cy="24" fill="#C2C2C2" rx="11" ry="11" style="stroke: #383838; stroke-width: 1.0;"/><path d="M223.7188,29.6406 Q223.1406,29.9375 222.5,30.0859 Q221.8594,30.2344 221.1563,30.2344 Q218.6563,30.2344 217.3359,28.5859 Q216.0156,26.9375 216.0156,23.8125 Q216.0156,20.6875 217.3359,19.0313 Q218.6563,17.375 221.1563,17.375 Q221.8594,17.375 222.5078,17.5313 Q223.1563,17.6875 223.7188,17.9844 L223.7188,20.7031 Q223.0938,20.125 222.5,19.8516 Q221.9063,19.5781 221.2813,19.5781 Q219.9375,19.5781 219.25,20.6484 Q218.5625,21.7188 218.5625,23.8125 Q218.5625,25.9063 219.25,26.9766 Q219.9375,28.0469 221.2813,28.0469 Q221.9063,28.0469 222.5,27.7734 Q223.0938,27.5 223.7188,26.9219 L223.7188,29.6406 Z "/><text fill="#000000" font-family="sans-serif" font-size="12" lengthAdjust="spacingAndGlyphs" textLength="104" x="237.75" y="28.1543">TAbstractSource</text><line style="stroke: #383838; stroke-width: 1.5;" x1="193.25" x2="357.25" y1="40" y2="40"/><line style="stroke: #383838; stroke-width: 1.5;" x1="193.25" x2="357.25" y1="48" y2="48"/><ellipse cx="203.25" cy="59.9023" fill="#A6A6A6" rx="3" ry="3" style="stroke: #545454; stroke-width: 1.0;"/><text fill="#000000" font-family="sans-serif" font-size="11" lengthAdjust="spacingAndGlyphs" textLength="129" x="212.25" y="62.2104">TAbstractSource(alias)</text><ellipse cx="203.25" cy="72.7043" fill="#A6A6A6" rx="3" ry="3" style="stroke: #545454; stroke-width: 1.0;"/><text fill="#000000" font-family="sans-serif" font-size="11" font-style="italic" lengthAdjust="spacingAndGlyphs" textLength="58" x="212.25" y="75.2568">init() : bool</text><ellipse cx="203.25" cy="85.5037" fill="#A6A6A6" rx="3" ry="3" style="stroke: #545454; stroke-width: 1.0;"/><text fill="#000000" font-family="sans-serif" font-size="11" font-style="italic" lengthAdjust="spacingAndGlyphs" textLength="140" x="212.25" y="88.0562">importTree(url, tree): bool</text><ellipse cx="203.25" cy="98.303" fill="#A6A6A6" rx="3" ry="3" style="stroke: #545454; stroke-width: 1.0;"/><text fill="#000000" font-family="sans-serif" font-size="11" font-style="italic" lengthAdjust="spacingAndGlyphs" textLength="140" x="212.25" y="100.8555">exportTree(url, tree): bool</text><ellipse cx="203.25" cy="111.1023" fill="#A6A6A6" rx="3" ry="3" style="stroke: #545454; stroke-width: 1.0;"/><text fill="#000000" font-family="sans-serif" font-size="11" font-style="italic" lengthAdjust="spacingAndGlyphs" textLength="79" x="212.25" y="113.6548">release() : bool</text><!--class TSourceJsonFile--><rect fill="#F8F8F8" filter="url(#frws1t8)" height="112.002" style="stroke: #383838; stroke-width: 1.5;" width="166" x="192.25" y="180"/><ellipse cx="223.45" cy="196" fill="#C2C2C2" rx="11" ry="11" style="stroke: #383838; stroke-width: 1.0;"/><path d="M226.4188,201.6406 Q225.8406,201.9375 225.2,202.0859 Q224.5594,202.2344 223.8563,202.2344 Q221.3563,202.2344 220.0359,200.5859 Q218.7156,198.9375 218.7156,195.8125 Q218.7156,192.6875 220.0359,191.0313 Q221.3563,189.375 223.8563,189.375 Q224.5594,189.375 225.2078,189.5313 Q225.8563,189.6875 226.4188,189.9844 L226.4188,192.7031 Q225.7938,192.125 225.2,191.8516 Q224.6063,191.5781 223.9813,191.5781 Q222.6375,191.5781 221.95,192.6484 Q221.2625,193.7188 221.2625,195.8125 Q221.2625,197.9063 221.95,198.9766 Q222.6375,200.0469 223.9813,200.0469 Q224.6063,200.0469 225.2,199.7734 Q225.7938,199.5 226.4188,198.9219 L226.4188,201.6406 Z "/><text fill="#000000" font-family="sans-serif" font-size="12" lengthAdjust="spacingAndGlyphs" textLength="98" x="241.05" y="200.1543">TSourceJsonFile</text><line style="stroke: #383838; stroke-width: 1.5;" x1="193.25" x2="357.25" y1="212" y2="212"/><rect fill="none" height="6" style="stroke: #595959; stroke-width: 1.0;" width="6" x="200.25" y="220.9023"/><text fill="#000000" font-family="sans-serif" font-size="11" lengthAdjust="spacingAndGlyphs" textLength="38" x="212.25" y="226.2104">reader</text><line style="stroke: #383838; stroke-width: 1.5;" x1="193.25" x2="357.25" y1="232.8047" y2="232.8047"/><ellipse cx="203.25" cy="244.7043" fill="#A6A6A6" rx="3" ry="3" style="stroke: #545454; stroke-width: 1.0;"/><text fill="#000000" font-family="sans-serif" font-size="11" font-style="italic" lengthAdjust="spacingAndGlyphs" textLength="58" x="212.25" y="247.2568">init() : bool</text><ellipse cx="203.25" cy="257.5037" fill="#A6A6A6" rx="3" ry="3" style="stroke: #545454; stroke-width: 1.0;"/><text fill="#000000" font-family="sans-serif" font-size="11" font-style="italic" lengthAdjust="spacingAndGlyphs" textLength="140" x="212.25" y="260.0562">importTree(url, tree): bool</text><ellipse cx="203.25" cy="270.303" fill="#A6A6A6" rx="3" ry="3" style="stroke: #545454; stroke-width: 1.0;"/><text fill="#000000" font-family="sans-serif" font-size="11" font-style="italic" lengthAdjust="spacingAndGlyphs" textLength="140" x="212.25" y="272.8555">exportTree(url, tree): bool</text><ellipse cx="203.25" cy="283.1023" fill="#A6A6A6" rx="3" ry="3" style="stroke: #545454; stroke-width: 1.0;"/><text fill="#000000" font-family="sans-serif" font-size="11" font-style="italic" lengthAdjust="spacingAndGlyphs" textLength="79" x="212.25" y="285.6548">release() : bool</text><!--class JSON::Reader--><rect fill="#F8F8F8" filter="url(#frws1t8)" height="48" style="stroke: #383838; stroke-width: 1.5;" width="114" x="393.25" y="212"/><ellipse cx="408.25" cy="228" fill="#C2C2C2" rx="11" ry="11" style="stroke: #383838; stroke-width: 1.0;"/><path d="M411.2188,233.6406 Q410.6406,233.9375 410,234.0859 Q409.3594,234.2344 408.6563,234.2344 Q406.1563,234.2344 404.8359,232.5859 Q403.5156,230.9375 403.5156,227.8125 Q403.5156,224.6875 404.8359,223.0313 Q406.1563,221.375 408.6563,221.375 Q409.3594,221.375 410.0078,221.5313 Q410.6563,221.6875 411.2188,221.9844 L411.2188,224.7031 Q410.5938,224.125 410,223.8516 Q409.4063,223.5781 408.7813,223.5781 Q407.4375,223.5781 406.75,224.6484 Q406.0625,225.7188 406.0625,227.8125 Q406.0625,229.9063 406.75,230.9766 Q407.4375,232.0469 408.7813,232.0469 Q409.4063,232.0469 410,231.7734 Q410.5938,231.5 411.2188,230.9219 L411.2188,233.6406 Z "/><text fill="#000000" font-family="sans-serif" font-size="12" lengthAdjust="spacingAndGlyphs" textLength="82" x="422.25" y="232.1543">JSON::Reader</text><line style="stroke: #383838; stroke-width: 1.5;" x1="394.25" x2="506.25" y1="244" y2="244"/><line style="stroke: #383838; stroke-width: 1.5;" x1="394.25" x2="506.25" y1="252" y2="252"/><path d="M156.652,64 C166.646,64 176.641,64 186.635,64 " fill="none" style="stroke: #383838; stroke-width: 1.0; stroke-dasharray: 7.0,7.0;"/><polygon fill="#383838" points="191.861,64,182.861,60,186.861,64,182.861,68,191.861,64" style="stroke: #383838; stroke-width: 1.0;"/><path d="M275.25,140.519 C275.25,153.733 275.25,167.257 275.25,179.792 " fill="none" style="stroke: #383838; stroke-width: 1.0;"/><polygon fill="none" points="268.25,140.194,275.25,120.194,282.25,140.194,268.25,140.194" style="stroke: #383838; stroke-width: 1.0;"/><path d="M371.371,236 C378.629,236 385.887,236 393.145,236 " fill="none" style="stroke: #383838; stroke-width: 1.0;"/><polygon fill="#FFFFFF" points="358.307,236,364.307,240,370.307,236,364.307,232,358.307,236" style="stroke: #383838; stroke-width: 1.0;"/></g></svg>