<?xml version="1.0" encoding="UTF-8" standalone="no"?><svg xmlns="http://www.w3.org/2000/svg" xmlns:xlink="http://www.w3.org/1999/xlink" contentScriptType="application/ecmascript" contentStyleType="text/css" height="333px" preserveAspectRatio="none" style="width:563px;height:333px;" version="1.1" viewBox="0 0 563 333" width="563px" zoomAndPan="magnify"><defs><filter height="300%" id="fgypzgy" width="300%" x="-1" y="-1"><feGaussianBlur result="blurOut" stdDeviation="2.0"/><feColorMatrix in="blurOut" result="blurOut2" type="matrix" values="0 0 0 0 0 0 0 0 0 0 0 0 0 0 0 0 0 0 .4 0"/><feOffset dx="4.0" dy="4.0" in="blurOut2" result="blurOut3"/><feBlend in="SourceGraphic" in2="blurOut3" mode="normal"/></filter></defs><g><!--class IGuiFactory--><rect fill="#F8F8F8" filter="url(#fgypzgy)" height="73.6094" style="stroke: #383838; stroke-width: 1.5;" width="223" x="14.75" y="8"/><ellipse cx="87.5" cy="24" fill="#C2C2C2" rx="11" ry="11" style="stroke: #383838; stroke-width: 1.0;"/><path d="M90.4688,29.6406 Q89.8906,29.9375 89.25,30.0859 Q88.6094,30.2344 87.9063,30.2344 Q85.4063,30.2344 84.0859,28.5859 Q82.7656,26.9375 82.7656,23.8125 Q82.7656,20.6875 84.0859,19.0313 Q85.4063,17.375 87.9063,17.375 Q88.6094,17.375 89.2578,17.5313 Q89.9063,17.6875 90.4688,17.9844 L90.4688,20.7031 Q89.8438,20.125 89.25,19.8516 Q88.6563,19.5781 88.0313,19.5781 Q86.6875,19.5781 86,20.6484 Q85.3125,21.7188 85.3125,23.8125 Q85.3125,25.9063 86,26.9766 Q86.6875,28.0469 88.0313,28.0469 Q88.6563,28.0469 89.25,27.7734 Q89.8438,27.5 90.4688,26.9219 L90.4688,29.6406 Z "/><text fill="#000000" font-family="sans-serif" font-size="12" lengthAdjust="spacingAndGlyphs" textLength="69" x="108" y="28.1543">IGuiFactory</text><line style="stroke: #383838; stroke-width: 1.5;" x1="15.75" x2="236.75" y1="40" y2="40"/><line style="stroke: #383838; stroke-width: 1.5;" x1="15.75" x2="236.75" y1="48" y2="48"/><ellipse cx="25.75" cy="59.9023" fill="#A6A6A6" rx="3" ry="3" style="stroke: #545454; stroke-width: 1.0;"/><text fill="#000000" font-family="sans-serif" font-size="11" lengthAdjust="spacingAndGlyphs" textLength="197" x="34.75" y="62.2104">getGuiApplication(): IGuiApplication</text><ellipse cx="25.75" cy="72.707" fill="#A6A6A6" rx="3" ry="3" style="stroke: #545454; stroke-width: 1.0;"/><text fill="#000000" font-family="sans-serif" font-size="11" lengthAdjust="spacingAndGlyphs" textLength="139" x="34.75" y="75.0151">getGuiAgent(): IGuiAgent</text><!--class TGuiQtFactory--><rect fill="#F8F8F8" filter="url(#fgypzgy)" height="73.6094" style="stroke: #383838; stroke-width: 1.5;" width="240" x="6.5" y="142"/><ellipse cx="78.75" cy="158" fill="#C2C2C2" rx="11" ry="11" style="stroke: #383838; stroke-width: 1.0;"/><path d="M81.7188,163.6406 Q81.1406,163.9375 80.5,164.0859 Q79.8594,164.2344 79.1563,164.2344 Q76.6563,164.2344 75.3359,162.5859 Q74.0156,160.9375 74.0156,157.8125 Q74.0156,154.6875 75.3359,153.0313 Q76.6563,151.375 79.1563,151.375 Q79.8594,151.375 80.5078,151.5313 Q81.1563,151.6875 81.7188,151.9844 L81.7188,154.7031 Q81.0938,154.125 80.5,153.8516 Q79.9063,153.5781 79.2813,153.5781 Q77.9375,153.5781 77.25,154.6484 Q76.5625,155.7188 76.5625,157.8125 Q76.5625,159.9063 77.25,160.9766 Q77.9375,162.0469 79.2813,162.0469 Q79.9063,162.0469 80.5,161.7734 Q81.0938,161.5 81.7188,160.9219 L81.7188,163.6406 Z "/><text fill="#000000" font-family="sans-serif" font-size="12" lengthAdjust="spacingAndGlyphs" textLength="87" x="99.25" y="162.1543">TGuiQtFactory</text><line style="stroke: #383838; stroke-width: 1.5;" x1="7.5" x2="245.5" y1="174" y2="174"/><line style="stroke: #383838; stroke-width: 1.5;" x1="7.5" x2="245.5" y1="182" y2="182"/><ellipse cx="17.5" cy="193.9023" fill="#A6A6A6" rx="3" ry="3" style="stroke: #545454; stroke-width: 1.0;"/><text fill="#000000" font-family="sans-serif" font-size="11" lengthAdjust="spacingAndGlyphs" textLength="214" x="26.5" y="196.2104">getGuiApplication(): TGuiQtApplication</text><ellipse cx="17.5" cy="206.707" fill="#A6A6A6" rx="3" ry="3" style="stroke: #545454; stroke-width: 1.0;"/><text fill="#000000" font-family="sans-serif" font-size="11" lengthAdjust="spacingAndGlyphs" textLength="156" x="26.5" y="209.0151">getGuiAgent(): TGuiQtAgent</text><!--class IGuiApplication--><rect fill="#F8F8F8" filter="url(#fgypzgy)" height="48" style="stroke: #383838; stroke-width: 1.5;" width="124" x="281.5" y="155"/><ellipse cx="296.5" cy="171" fill="#C2C2C2" rx="11" ry="11" style="stroke: #383838; stroke-width: 1.0;"/><path d="M299.4688,176.6406 Q298.8906,176.9375 298.25,177.0859 Q297.6094,177.2344 296.9063,177.2344 Q294.4063,177.2344 293.0859,175.5859 Q291.7656,173.9375 291.7656,170.8125 Q291.7656,167.6875 293.0859,166.0313 Q294.4063,164.375 296.9063,164.375 Q297.6094,164.375 298.2578,164.5313 Q298.9063,164.6875 299.4688,164.9844 L299.4688,167.7031 Q298.8438,167.125 298.25,166.8516 Q297.6563,166.5781 297.0313,166.5781 Q295.6875,166.5781 295,167.6484 Q294.3125,168.7188 294.3125,170.8125 Q294.3125,172.9063 295,173.9766 Q295.6875,175.0469 297.0313,175.0469 Q297.6563,175.0469 298.25,174.7734 Q298.8438,174.5 299.4688,173.9219 L299.4688,176.6406 Z "/><text fill="#000000" font-family="sans-serif" font-size="12" lengthAdjust="spacingAndGlyphs" textLength="92" x="310.5" y="175.1543">IGuiApplication</text><line style="stroke: #383838; stroke-width: 1.5;" x1="282.5" x2="404.5" y1="187" y2="187"/><line style="stroke: #383838; stroke-width: 1.5;" x1="282.5" x2="404.5" y1="195" y2="195"/><!--class TGuiQtApplication--><rect fill="#F8F8F8" filter="url(#fgypzgy)" height="48" style="stroke: #383838; stroke-width: 1.5;" width="142" x="267" y="276"/><ellipse cx="282" cy="292" fill="#C2C2C2" rx="11" ry="11" style="stroke: #383838; stroke-width: 1.0;"/><path d="M284.9688,297.6406 Q284.3906,297.9375 283.75,298.0859 Q283.1094,298.2344 282.4063,298.2344 Q279.9063,298.2344 278.5859,296.5859 Q277.2656,294.9375 277.2656,291.8125 Q277.2656,288.6875 278.5859,287.0313 Q279.9063,285.375 282.4063,285.375 Q283.1094,285.375 283.7578,285.5313 Q284.4063,285.6875 284.9688,285.9844 L284.9688,288.7031 Q284.3438,288.125 283.75,287.8516 Q283.1563,287.5781 282.5313,287.5781 Q281.1875,287.5781 280.5,288.6484 Q279.8125,289.7188 279.8125,291.8125 Q279.8125,293.9063 280.5,294.9766 Q281.1875,296.0469 282.5313,296.0469 Q283.1563,296.0469 283.75,295.7734 Q284.3438,295.5 284.9688,294.9219 L284.9688,297.6406 Z "/><text fill="#000000" font-family="sans-serif" font-size="12" lengthAdjust="spacingAndGlyphs" textLength="110" x="296" y="296.1543">TGuiQtApplication</text><line style="stroke: #383838; stroke-width: 1.5;" x1="268" x2="408" y1="308" y2="308"/><line style="stroke: #383838; stroke-width: 1.5;" x1="268" x2="408" y1="316" y2="316"/><!--class IGuiAgent--><rect fill="#F8F8F8" filter="url(#fgypzgy)" height="48" style="stroke: #383838; stroke-width: 1.5;" width="92" x="449" y="155"/><ellipse cx="464" cy="171" fill="#C2C2C2" rx="11" ry="11" style="stroke: #383838; stroke-width: 1.0;"/><path d="M466.9688,176.6406 Q466.3906,176.9375 465.75,177.0859 Q465.1094,177.2344 464.4063,177.2344 Q461.9063,177.2344 460.5859,175.5859 Q459.2656,173.9375 459.2656,170.8125 Q459.2656,167.6875 460.5859,166.0313 Q461.9063,164.375 464.4063,164.375 Q465.1094,164.375 465.7578,164.5313 Q466.4063,164.6875 466.9688,164.9844 L466.9688,167.7031 Q466.3438,167.125 465.75,166.8516 Q465.1563,166.5781 464.5313,166.5781 Q463.1875,166.5781 462.5,167.6484 Q461.8125,168.7188 461.8125,170.8125 Q461.8125,172.9063 462.5,173.9766 Q463.1875,175.0469 464.5313,175.0469 Q465.1563,175.0469 465.75,174.7734 Q466.3438,174.5 466.9688,173.9219 L466.9688,176.6406 Z "/><text fill="#000000" font-family="sans-serif" font-size="12" lengthAdjust="spacingAndGlyphs" textLength="60" x="478" y="175.1543">IGuiAgent</text><line style="stroke: #383838; stroke-width: 1.5;" x1="450" x2="540" y1="187" y2="187"/><line style="stroke: #383838; stroke-width: 1.5;" x1="450" x2="540" y1="195" y2="195"/><!--class TGuiQtAgent--><rect fill="#F8F8F8" filter="url(#fgypzgy)" height="48" style="stroke: #383838; stroke-width: 1.5;" width="110" x="444" y="276"/><ellipse cx="459" cy="292" fill="#C2C2C2" rx="11" ry="11" style="stroke: #383838; stroke-width: 1.0;"/><path d="M461.9688,297.6406 Q461.3906,297.9375 460.75,298.0859 Q460.1094,298.2344 459.4063,298.2344 Q456.9063,298.2344 455.5859,296.5859 Q454.2656,294.9375 454.2656,291.8125 Q454.2656,288.6875 455.5859,287.0313 Q456.9063,285.375 459.4063,285.375 Q460.1094,285.375 460.7578,285.5313 Q461.4063,285.6875 461.9688,285.9844 L461.9688,288.7031 Q461.3438,288.125 460.75,287.8516 Q460.1563,287.5781 459.5313,287.5781 Q458.1875,287.5781 457.5,288.6484 Q456.8125,289.7188 456.8125,291.8125 Q456.8125,293.9063 457.5,294.9766 Q458.1875,296.0469 459.5313,296.0469 Q460.1563,296.0469 460.75,295.7734 Q461.3438,295.5 461.9688,294.9219 L461.9688,297.6406 Z "/><text fill="#000000" font-family="sans-serif" font-size="12" lengthAdjust="spacingAndGlyphs" textLength="78" x="473" y="296.1543">TGuiQtAgent</text><line style="stroke: #383838; stroke-width: 1.5;" x1="445" x2="553" y1="308" y2="308"/><line style="stroke: #383838; stroke-width: 1.5;" x1="445" x2="553" y1="316" y2="316"/><!--class TApplication--><rect fill="#F8F8F8" filter="url(#fgypzgy)" height="48" style="stroke: #383838; stroke-width: 1.5;" width="108" x="365" y="21"/><ellipse cx="380" cy="37" fill="#C2C2C2" rx="11" ry="11" style="stroke: #383838; stroke-width: 1.0;"/><path d="M382.9688,42.6406 Q382.3906,42.9375 381.75,43.0859 Q381.1094,43.2344 380.4063,43.2344 Q377.9063,43.2344 376.5859,41.5859 Q375.2656,39.9375 375.2656,36.8125 Q375.2656,33.6875 376.5859,32.0313 Q377.9063,30.375 380.4063,30.375 Q381.1094,30.375 381.7578,30.5313 Q382.4063,30.6875 382.9688,30.9844 L382.9688,33.7031 Q382.3438,33.125 381.75,32.8516 Q381.1563,32.5781 380.5313,32.5781 Q379.1875,32.5781 378.5,33.6484 Q377.8125,34.7188 377.8125,36.8125 Q377.8125,38.9063 378.5,39.9766 Q379.1875,41.0469 380.5313,41.0469 Q381.1563,41.0469 381.75,40.7734 Q382.3438,40.5 382.9688,39.9219 L382.9688,42.6406 Z "/><text fill="#000000" font-family="sans-serif" font-size="12" lengthAdjust="spacingAndGlyphs" textLength="76" x="394" y="41.1543">TApplication</text><line style="stroke: #383838; stroke-width: 1.5;" x1="366" x2="472" y1="53" y2="53"/><line style="stroke: #383838; stroke-width: 1.5;" x1="366" x2="472" y1="61" y2="61"/><path d="M126,102.379 C126,115.796 126,129.755 126,141.974 " fill="none" style="stroke: #383838; stroke-width: 1.0;"/><polygon fill="none" points="119,102.07,126,82.07,133,102.07,119,102.07" style="stroke: #383838; stroke-width: 1.0;"/><path d="M341.177,223.376 C340.432,241.1222 339.599,260.9376 338.973,275.8317 " fill="none" style="stroke: #383838; stroke-width: 1.0;"/><polygon fill="none" points="334.191,222.915,342.024,203.227,348.178,223.503,334.191,222.915" style="stroke: #383838; stroke-width: 1.0;"/><path d="M496.458,223.376 C497.055,241.1222 497.721,260.9376 498.221,275.8317 " fill="none" style="stroke: #383838; stroke-width: 1.0;"/><polygon fill="none" points="489.457,223.451,495.781,203.227,503.449,222.98,489.457,223.451" style="stroke: #383838; stroke-width: 1.0;"/><path d="M242.78,45 C283.421,45 324.063,45 364.705,45 " fill="none" style="stroke: #383838; stroke-width: 1.0; stroke-dasharray: 7.0,7.0;"/><polygon fill="#383838" points="237.306,45,246.306,49,242.306,45,246.306,41,237.306,45" style="stroke: #383838; stroke-width: 1.0;"/><path d="M405.588,69.295 C392.51,92.01 372.623,126.55 358.788,150.579 " fill="none" style="stroke: #383838; stroke-width: 1.0; stroke-dasharray: 7.0,7.0;"/><polygon fill="#383838" points="356.278,154.938,364.2362,149.1357,358.7736,150.6053,357.304,145.1427,356.278,154.938" style="stroke: #383838; stroke-width: 1.0;"/><path d="M432.412,69.295 C445.49,92.01 465.377,126.55 479.212,150.579 " fill="none" style="stroke: #383838; stroke-width: 1.0; stroke-dasharray: 7.0,7.0;"/><polygon fill="#383838" points="481.722,154.938,480.696,145.1427,479.2264,150.6053,473.7638,149.1357,481.722,154.938" style="stroke: #383838; stroke-width: 1.0;"/></g></svg>