<?xml version="1.0" encoding="UTF-8" standalone="no"?><svg xmlns="http://www.w3.org/2000/svg" xmlns:xlink="http://www.w3.org/1999/xlink" contentScriptType="application/ecmascript" contentStyleType="text/css" height="211px" preserveAspectRatio="none" style="width:712px;height:211px;" version="1.1" viewBox="0 0 712 211" width="712px" zoomAndPan="magnify"><defs><filter height="300%" id="fxxe97n" width="300%" x="-1" y="-1"><feGaussianBlur result="blurOut" stdDeviation="2.0"/><feColorMatrix in="blurOut" result="blurOut2" type="matrix" values="0 0 0 0 0 0 0 0 0 0 0 0 0 0 0 0 0 0 .4 0"/><feOffset dx="4.0" dy="4.0" in="blurOut2" result="blurOut3"/><feBlend in="SourceGraphic" in2="blurOut3" mode="normal"/></filter></defs><g><!--class TApplication--><rect fill="#F8F8F8" filter="url(#fxxe97n)" height="86.4141" style="stroke: #383838; stroke-width: 1.5;" width="233" x="6" y="8"/><ellipse cx="80.25" cy="24" fill="#C2C2C2" rx="11" ry="11" style="stroke: #383838; stroke-width: 1.0;"/><path d="M83.2188,29.6406 Q82.6406,29.9375 82,30.0859 Q81.3594,30.2344 80.6563,30.2344 Q78.1563,30.2344 76.8359,28.5859 Q75.5156,26.9375 75.5156,23.8125 Q75.5156,20.6875 76.8359,19.0313 Q78.1563,17.375 80.6563,17.375 Q81.3594,17.375 82.0078,17.5313 Q82.6563,17.6875 83.2188,17.9844 L83.2188,20.7031 Q82.5938,20.125 82,19.8516 Q81.4063,19.5781 80.7813,19.5781 Q79.4375,19.5781 78.75,20.6484 Q78.0625,21.7188 78.0625,23.8125 Q78.0625,25.9063 78.75,26.9766 Q79.4375,28.0469 80.7813,28.0469 Q81.4063,28.0469 82,27.7734 Q82.5938,27.5 83.2188,26.9219 L83.2188,29.6406 Z "/><text fill="#000000" font-family="sans-serif" font-size="12" lengthAdjust="spacingAndGlyphs" textLength="76" x="100.75" y="28.1543">TApplication</text><line style="stroke: #383838; stroke-width: 1.5;" x1="7" x2="238" y1="40" y2="40"/><rect fill="none" height="6" style="stroke: #595959; stroke-width: 1.0;" width="6" x="14" y="48.9023"/><text fill="#000000" font-family="sans-serif" font-size="11" lengthAdjust="spacingAndGlyphs" textLength="207" x="26" y="54.2104">m_taskManager: TTaskTreeManager</text><rect fill="none" height="6" style="stroke: #595959; stroke-width: 1.0;" width="6" x="14" y="61.707"/><text fill="#000000" font-family="sans-serif" font-size="11" lengthAdjust="spacingAndGlyphs" textLength="154" x="26" y="67.0151">m_plugins: TAbstractPlugin</text><line style="stroke: #383838; stroke-width: 1.5;" x1="7" x2="238" y1="73.6094" y2="73.6094"/><ellipse cx="17" cy="85.5117" fill="#A6A6A6" rx="3" ry="3" style="stroke: #545454; stroke-width: 1.0;"/><text fill="#000000" font-family="sans-serif" font-size="11" lengthAdjust="spacingAndGlyphs" textLength="104" x="26" y="87.8198">addPlugins(plugin)</text><!--class TAbstractPlugin--><rect fill="#F8F8F8" filter="url(#fxxe97n)" height="48" style="stroke: #383838; stroke-width: 1.5;" width="130" x="344.5" y="27"/><ellipse cx="359.5" cy="43" fill="#C2C2C2" rx="11" ry="11" style="stroke: #383838; stroke-width: 1.0;"/><path d="M362.4688,48.6406 Q361.8906,48.9375 361.25,49.0859 Q360.6094,49.2344 359.9063,49.2344 Q357.4063,49.2344 356.0859,47.5859 Q354.7656,45.9375 354.7656,42.8125 Q354.7656,39.6875 356.0859,38.0313 Q357.4063,36.375 359.9063,36.375 Q360.6094,36.375 361.2578,36.5313 Q361.9063,36.6875 362.4688,36.9844 L362.4688,39.7031 Q361.8438,39.125 361.25,38.8516 Q360.6563,38.5781 360.0313,38.5781 Q358.6875,38.5781 358,39.6484 Q357.3125,40.7188 357.3125,42.8125 Q357.3125,44.9063 358,45.9766 Q358.6875,47.0469 360.0313,47.0469 Q360.6563,47.0469 361.25,46.7734 Q361.8438,46.5 362.4688,45.9219 L362.4688,48.6406 Z "/><text fill="#000000" font-family="sans-serif" font-size="12" lengthAdjust="spacingAndGlyphs" textLength="98" x="373.5" y="47.1543">TAbstractPlugin</text><line style="stroke: #383838; stroke-width: 1.5;" x1="345.5" x2="473.5" y1="59" y2="59"/><line style="stroke: #383838; stroke-width: 1.5;" x1="345.5" x2="473.5" y1="67" y2="67"/><!--class TTaskTreeManager--><rect fill="#F8F8F8" filter="url(#fxxe97n)" height="48" style="stroke: #383838; stroke-width: 1.5;" width="151" x="12" y="154"/><ellipse cx="27" cy="170" fill="#C2C2C2" rx="11" ry="11" style="stroke: #383838; stroke-width: 1.0;"/><path d="M29.9688,175.6406 Q29.3906,175.9375 28.75,176.0859 Q28.1094,176.2344 27.4063,176.2344 Q24.9063,176.2344 23.5859,174.5859 Q22.2656,172.9375 22.2656,169.8125 Q22.2656,166.6875 23.5859,165.0313 Q24.9063,163.375 27.4063,163.375 Q28.1094,163.375 28.7578,163.5313 Q29.4063,163.6875 29.9688,163.9844 L29.9688,166.7031 Q29.3438,166.125 28.75,165.8516 Q28.1563,165.5781 27.5313,165.5781 Q26.1875,165.5781 25.5,166.6484 Q24.8125,167.7188 24.8125,169.8125 Q24.8125,171.9063 25.5,172.9766 Q26.1875,174.0469 27.5313,174.0469 Q28.1563,174.0469 28.75,173.7734 Q29.3438,173.5 29.9688,172.9219 L29.9688,175.6406 Z "/><text fill="#000000" font-family="sans-serif" font-size="12" lengthAdjust="spacingAndGlyphs" textLength="119" x="41" y="174.1543">TTaskTreeManager</text><line style="stroke: #383838; stroke-width: 1.5;" x1="13" x2="162" y1="186" y2="186"/><line style="stroke: #383838; stroke-width: 1.5;" x1="13" x2="162" y1="194" y2="194"/><!--class TPluginEyeResting--><rect fill="#F8F8F8" filter="url(#fxxe97n)" height="48" style="stroke: #383838; stroke-width: 1.5;" width="146" x="198.5" y="154"/><ellipse cx="213.5" cy="170" fill="#C2C2C2" rx="11" ry="11" style="stroke: #383838; stroke-width: 1.0;"/><path d="M216.4688,175.6406 Q215.8906,175.9375 215.25,176.0859 Q214.6094,176.2344 213.9063,176.2344 Q211.4063,176.2344 210.0859,174.5859 Q208.7656,172.9375 208.7656,169.8125 Q208.7656,166.6875 210.0859,165.0313 Q211.4063,163.375 213.9063,163.375 Q214.6094,163.375 215.2578,163.5313 Q215.9063,163.6875 216.4688,163.9844 L216.4688,166.7031 Q215.8438,166.125 215.25,165.8516 Q214.6563,165.5781 214.0313,165.5781 Q212.6875,165.5781 212,166.6484 Q211.3125,167.7188 211.3125,169.8125 Q211.3125,171.9063 212,172.9766 Q212.6875,174.0469 214.0313,174.0469 Q214.6563,174.0469 215.25,173.7734 Q215.8438,173.5 216.4688,172.9219 L216.4688,175.6406 Z "/><text fill="#000000" font-family="sans-serif" font-size="12" lengthAdjust="spacingAndGlyphs" textLength="114" x="227.5" y="174.1543">TPluginEyeResting</text><line style="stroke: #383838; stroke-width: 1.5;" x1="199.5" x2="343.5" y1="186" y2="186"/><line style="stroke: #383838; stroke-width: 1.5;" x1="199.5" x2="343.5" y1="194" y2="194"/><!--class TPluginTodoList--><rect fill="#F8F8F8" filter="url(#fxxe97n)" height="48" style="stroke: #383838; stroke-width: 1.5;" width="129" x="380" y="154"/><ellipse cx="395" cy="170" fill="#C2C2C2" rx="11" ry="11" style="stroke: #383838; stroke-width: 1.0;"/><path d="M397.9688,175.6406 Q397.3906,175.9375 396.75,176.0859 Q396.1094,176.2344 395.4063,176.2344 Q392.9063,176.2344 391.5859,174.5859 Q390.2656,172.9375 390.2656,169.8125 Q390.2656,166.6875 391.5859,165.0313 Q392.9063,163.375 395.4063,163.375 Q396.1094,163.375 396.7578,163.5313 Q397.4063,163.6875 397.9688,163.9844 L397.9688,166.7031 Q397.3438,166.125 396.75,165.8516 Q396.1563,165.5781 395.5313,165.5781 Q394.1875,165.5781 393.5,166.6484 Q392.8125,167.7188 392.8125,169.8125 Q392.8125,171.9063 393.5,172.9766 Q394.1875,174.0469 395.5313,174.0469 Q396.1563,174.0469 396.75,173.7734 Q397.3438,173.5 397.9688,172.9219 L397.9688,175.6406 Z "/><text fill="#000000" font-family="sans-serif" font-size="12" lengthAdjust="spacingAndGlyphs" textLength="97" x="409" y="174.1543">TPluginTodoList</text><line style="stroke: #383838; stroke-width: 1.5;" x1="381" x2="508" y1="186" y2="186"/><line style="stroke: #383838; stroke-width: 1.5;" x1="381" x2="508" y1="194" y2="194"/><!--class TPluginBookReading--><rect fill="#F8F8F8" filter="url(#fxxe97n)" height="48" style="stroke: #383838; stroke-width: 1.5;" width="159" x="544" y="154"/><ellipse cx="559" cy="170" fill="#C2C2C2" rx="11" ry="11" style="stroke: #383838; stroke-width: 1.0;"/><path d="M561.9688,175.6406 Q561.3906,175.9375 560.75,176.0859 Q560.1094,176.2344 559.4063,176.2344 Q556.9063,176.2344 555.5859,174.5859 Q554.2656,172.9375 554.2656,169.8125 Q554.2656,166.6875 555.5859,165.0313 Q556.9063,163.375 559.4063,163.375 Q560.1094,163.375 560.7578,163.5313 Q561.4063,163.6875 561.9688,163.9844 L561.9688,166.7031 Q561.3438,166.125 560.75,165.8516 Q560.1563,165.5781 559.5313,165.5781 Q558.1875,165.5781 557.5,166.6484 Q556.8125,167.7188 556.8125,169.8125 Q556.8125,171.9063 557.5,172.9766 Q558.1875,174.0469 559.5313,174.0469 Q560.1563,174.0469 560.75,173.7734 Q561.3438,173.5 561.9688,172.9219 L561.9688,175.6406 Z "/><text fill="#000000" font-family="sans-serif" font-size="12" lengthAdjust="spacingAndGlyphs" textLength="127" x="573" y="174.1543">TPluginBookReading</text><line style="stroke: #383838; stroke-width: 1.5;" x1="545" x2="702" y1="186" y2="186"/><line style="stroke: #383838; stroke-width: 1.5;" x1="545" x2="702" y1="194" y2="194"/><path d="M252.24,51 C282.916,51 313.591,51 344.266,51 " fill="none" style="stroke: #383838; stroke-width: 1.0;"/><polygon fill="#FFFFFF" points="239.094,51,245.094,55,251.094,51,245.094,47,239.094,51" style="stroke: #383838; stroke-width: 1.0;"/><text fill="#000000" font-family="sans-serif" font-size="13" lengthAdjust="spacingAndGlyphs" textLength="8" x="246.8196" y="47.5774">1</text><text fill="#000000" font-family="sans-serif" font-size="13" lengthAdjust="spacingAndGlyphs" textLength="7" x="329.3186" y="47.2074">*</text><path d="M107.048,107.1875 C102.4739,123.5219 97.7111,140.5318 94.0319,153.6717 " fill="none" style="stroke: #383838; stroke-width: 1.0;"/><polygon fill="#383838" points="110.651,94.319,105.1814,99.0183,107.4154,105.8746,112.8851,101.1753,110.651,94.319" style="stroke: #383838; stroke-width: 1.0;"/><path d="M368.766,88.897 C345.519,109.9537 317.098,135.6977 296.996,153.9058 " fill="none" style="stroke: #383838; stroke-width: 1.0;"/><polygon fill="none" points="364.344,83.457,383.867,75.219,373.743,93.833,364.344,83.457" style="stroke: #383838; stroke-width: 1.0;"/><path d="M421.477,94.775 C427.026,114.5941 433.401,137.361 438.034,153.9058 " fill="none" style="stroke: #383838; stroke-width: 1.0;"/><polygon fill="none" points="414.653,96.365,416.001,75.219,428.135,92.59,414.653,96.365" style="stroke: #383838; stroke-width: 1.0;"/><path d="M466.51,85.3 C503.55,106.9359 550.901,134.5938 583.868,153.8505 " fill="none" style="stroke: #383838; stroke-width: 1.0;"/><polygon fill="none" points="462.739,91.205,449,75.073,469.801,79.116,462.739,91.205" style="stroke: #383838; stroke-width: 1.0;"/></g></svg>