<?xml version="1.0" encoding="UTF-8" standalone="no"?><svg xmlns="http://www.w3.org/2000/svg" xmlns:xlink="http://www.w3.org/1999/xlink" contentScriptType="application/ecmascript" contentStyleType="text/css" height="211px" preserveAspectRatio="none" style="width:747px;height:211px;" version="1.1" viewBox="0 0 747 211" width="747px" zoomAndPan="magnify"><defs><filter height="300%" id="f9bdznt" width="300%" x="-1" y="-1"><feGaussianBlur result="blurOut" stdDeviation="2.0"/><feColorMatrix in="blurOut" result="blurOut2" type="matrix" values="0 0 0 0 0 0 0 0 0 0 0 0 0 0 0 0 0 0 .4 0"/><feOffset dx="4.0" dy="4.0" in="blurOut2" result="blurOut3"/><feBlend in="SourceGraphic" in2="blurOut3" mode="normal"/></filter></defs><g><!--class TApplication--><rect fill="#F8F8F8" filter="url(#f9bdznt)" height="86.4141" style="stroke: #383838; stroke-width: 1.5;" width="233" x="6" y="8"/><ellipse cx="80.25" cy="24" fill="#C2C2C2" rx="11" ry="11" style="stroke: #383838; stroke-width: 1.0;"/><path d="M83.2188,29.6406 Q82.6406,29.9375 82,30.0859 Q81.3594,30.2344 80.6563,30.2344 Q78.1563,30.2344 76.8359,28.5859 Q75.5156,26.9375 75.5156,23.8125 Q75.5156,20.6875 76.8359,19.0313 Q78.1563,17.375 80.6563,17.375 Q81.3594,17.375 82.0078,17.5313 Q82.6563,17.6875 83.2188,17.9844 L83.2188,20.7031 Q82.5938,20.125 82,19.8516 Q81.4063,19.5781 80.7813,19.5781 Q79.4375,19.5781 78.75,20.6484 Q78.0625,21.7188 78.0625,23.8125 Q78.0625,25.9063 78.75,26.9766 Q79.4375,28.0469 80.7813,28.0469 Q81.4063,28.0469 82,27.7734 Q82.5938,27.5 83.2188,26.9219 L83.2188,29.6406 Z "/><text fill="#000000" font-family="sans-serif" font-size="12" lengthAdjust="spacingAndGlyphs" textLength="76" x="100.75" y="28.1543">TApplication</text><line style="stroke: #383838; stroke-width: 1.5;" x1="7" x2="238" y1="40" y2="40"/><rect fill="none" height="6" style="stroke: #595959; stroke-width: 1.0;" width="6" x="14" y="48.9023"/><text fill="#000000" font-family="sans-serif" font-size="11" lengthAdjust="spacingAndGlyphs" textLength="207" x="26" y="54.2104">m_taskManager: TTaskTreeManager</text><rect fill="none" height="6" style="stroke: #595959; stroke-width: 1.0;" width="6" x="14" y="61.707"/><text fill="#000000" font-family="sans-serif" font-size="11" lengthAdjust="spacingAndGlyphs" textLength="154" x="26" y="67.0151">m_plugins: TAbstractPlugin</text><line style="stroke: #383838; stroke-width: 1.5;" x1="7" x2="238" y1="73.6094" y2="73.6094"/><ellipse cx="17" cy="85.5117" fill="#A6A6A6" rx="3" ry="3" style="stroke: #545454; stroke-width: 1.0;"/><text fill="#000000" font-family="sans-serif" font-size="11" lengthAdjust="spacingAndGlyphs" textLength="104" x="26" y="87.8198">addPlugins(plugin)</text><!--class TAbstractPlugin--><rect fill="#F8F8F8" filter="url(#f9bdznt)" height="48" style="stroke: #383838; stroke-width: 1.5;" width="130" x="414.25" y="27"/><ellipse cx="429.25" cy="43" fill="#C2C2C2" rx="11" ry="11" style="stroke: #383838; stroke-width: 1.0;"/><path d="M432.2188,48.6406 Q431.6406,48.9375 431,49.0859 Q430.3594,49.2344 429.6563,49.2344 Q427.1563,49.2344 425.8359,47.5859 Q424.5156,45.9375 424.5156,42.8125 Q424.5156,39.6875 425.8359,38.0313 Q427.1563,36.375 429.6563,36.375 Q430.3594,36.375 431.0078,36.5313 Q431.6563,36.6875 432.2188,36.9844 L432.2188,39.7031 Q431.5938,39.125 431,38.8516 Q430.4063,38.5781 429.7813,38.5781 Q428.4375,38.5781 427.75,39.6484 Q427.0625,40.7188 427.0625,42.8125 Q427.0625,44.9063 427.75,45.9766 Q428.4375,47.0469 429.7813,47.0469 Q430.4063,47.0469 431,46.7734 Q431.5938,46.5 432.2188,45.9219 L432.2188,48.6406 Z "/><text fill="#000000" font-family="sans-serif" font-size="12" lengthAdjust="spacingAndGlyphs" textLength="98" x="443.25" y="47.1543">TAbstractPlugin</text><line style="stroke: #383838; stroke-width: 1.5;" x1="415.25" x2="543.25" y1="59" y2="59"/><line style="stroke: #383838; stroke-width: 1.5;" x1="415.25" x2="543.25" y1="67" y2="67"/><!--class TTaskTreeManager--><rect fill="#F8F8F8" filter="url(#f9bdznt)" height="48" style="stroke: #383838; stroke-width: 1.5;" width="151" x="47" y="154"/><ellipse cx="62" cy="170" fill="#C2C2C2" rx="11" ry="11" style="stroke: #383838; stroke-width: 1.0;"/><path d="M64.9688,175.6406 Q64.3906,175.9375 63.75,176.0859 Q63.1094,176.2344 62.4063,176.2344 Q59.9063,176.2344 58.5859,174.5859 Q57.2656,172.9375 57.2656,169.8125 Q57.2656,166.6875 58.5859,165.0313 Q59.9063,163.375 62.4063,163.375 Q63.1094,163.375 63.7578,163.5313 Q64.4063,163.6875 64.9688,163.9844 L64.9688,166.7031 Q64.3438,166.125 63.75,165.8516 Q63.1563,165.5781 62.5313,165.5781 Q61.1875,165.5781 60.5,166.6484 Q59.8125,167.7188 59.8125,169.8125 Q59.8125,171.9063 60.5,172.9766 Q61.1875,174.0469 62.5313,174.0469 Q63.1563,174.0469 63.75,173.7734 Q64.3438,173.5 64.9688,172.9219 L64.9688,175.6406 Z "/><text fill="#000000" font-family="sans-serif" font-size="12" lengthAdjust="spacingAndGlyphs" textLength="119" x="76" y="174.1543">TTaskTreeManager</text><line style="stroke: #383838; stroke-width: 1.5;" x1="48" x2="197" y1="186" y2="186"/><line style="stroke: #383838; stroke-width: 1.5;" x1="48" x2="197" y1="194" y2="194"/><!--class TPluginEyeResting--><rect fill="#F8F8F8" filter="url(#f9bdznt)" height="48" style="stroke: #383838; stroke-width: 1.5;" width="146" x="233.25" y="154"/><ellipse cx="248.25" cy="170" fill="#C2C2C2" rx="11" ry="11" style="stroke: #383838; stroke-width: 1.0;"/><path d="M251.2188,175.6406 Q250.6406,175.9375 250,176.0859 Q249.3594,176.2344 248.6563,176.2344 Q246.1563,176.2344 244.8359,174.5859 Q243.5156,172.9375 243.5156,169.8125 Q243.5156,166.6875 244.8359,165.0313 Q246.1563,163.375 248.6563,163.375 Q249.3594,163.375 250.0078,163.5313 Q250.6563,163.6875 251.2188,163.9844 L251.2188,166.7031 Q250.5938,166.125 250,165.8516 Q249.4063,165.5781 248.7813,165.5781 Q247.4375,165.5781 246.75,166.6484 Q246.0625,167.7188 246.0625,169.8125 Q246.0625,171.9063 246.75,172.9766 Q247.4375,174.0469 248.7813,174.0469 Q249.4063,174.0469 250,173.7734 Q250.5938,173.5 251.2188,172.9219 L251.2188,175.6406 Z "/><text fill="#000000" font-family="sans-serif" font-size="12" lengthAdjust="spacingAndGlyphs" textLength="114" x="262.25" y="174.1543">TPluginEyeResting</text><line style="stroke: #383838; stroke-width: 1.5;" x1="234.25" x2="378.25" y1="186" y2="186"/><line style="stroke: #383838; stroke-width: 1.5;" x1="234.25" x2="378.25" y1="194" y2="194"/><!--class TPluginTodoList--><rect fill="#F8F8F8" filter="url(#f9bdznt)" height="48" style="stroke: #383838; stroke-width: 1.5;" width="129" x="415" y="154"/><ellipse cx="430" cy="170" fill="#C2C2C2" rx="11" ry="11" style="stroke: #383838; stroke-width: 1.0;"/><path d="M432.9688,175.6406 Q432.3906,175.9375 431.75,176.0859 Q431.1094,176.2344 430.4063,176.2344 Q427.9063,176.2344 426.5859,174.5859 Q425.2656,172.9375 425.2656,169.8125 Q425.2656,166.6875 426.5859,165.0313 Q427.9063,163.375 430.4063,163.375 Q431.1094,163.375 431.7578,163.5313 Q432.4063,163.6875 432.9688,163.9844 L432.9688,166.7031 Q432.3438,166.125 431.75,165.8516 Q431.1563,165.5781 430.5313,165.5781 Q429.1875,165.5781 428.5,166.6484 Q427.8125,167.7188 427.8125,169.8125 Q427.8125,171.9063 428.5,172.9766 Q429.1875,174.0469 430.5313,174.0469 Q431.1563,174.0469 431.75,173.7734 Q432.3438,173.5 432.9688,172.9219 L432.9688,175.6406 Z "/><text fill="#000000" font-family="sans-serif" font-size="12" lengthAdjust="spacingAndGlyphs" textLength="97" x="444" y="174.1543">TPluginTodoList</text><line style="stroke: #383838; stroke-width: 1.5;" x1="416" x2="543" y1="186" y2="186"/><line style="stroke: #383838; stroke-width: 1.5;" x1="416" x2="543" y1="194" y2="194"/><!--class TPluginBookReading--><rect fill="#F8F8F8" filter="url(#f9bdznt)" height="48" style="stroke: #383838; stroke-width: 1.5;" width="159" x="579" y="154"/><ellipse cx="594" cy="170" fill="#C2C2C2" rx="11" ry="11" style="stroke: #383838; stroke-width: 1.0;"/><path d="M596.9688,175.6406 Q596.3906,175.9375 595.75,176.0859 Q595.1094,176.2344 594.4063,176.2344 Q591.9063,176.2344 590.5859,174.5859 Q589.2656,172.9375 589.2656,169.8125 Q589.2656,166.6875 590.5859,165.0313 Q591.9063,163.375 594.4063,163.375 Q595.1094,163.375 595.7578,163.5313 Q596.4063,163.6875 596.9688,163.9844 L596.9688,166.7031 Q596.3438,166.125 595.75,165.8516 Q595.1563,165.5781 594.5313,165.5781 Q593.1875,165.5781 592.5,166.6484 Q591.8125,167.7188 591.8125,169.8125 Q591.8125,171.9063 592.5,172.9766 Q593.1875,174.0469 594.5313,174.0469 Q595.1563,174.0469 595.75,173.7734 Q596.3438,173.5 596.9688,172.9219 L596.9688,175.6406 Z "/><text fill="#000000" font-family="sans-serif" font-size="12" lengthAdjust="spacingAndGlyphs" textLength="127" x="608" y="174.1543">TPluginBookReading</text><line style="stroke: #383838; stroke-width: 1.5;" x1="580" x2="737" y1="186" y2="186"/><line style="stroke: #383838; stroke-width: 1.5;" x1="580" x2="737" y1="194" y2="194"/><path d="M251.7,51 C305.781,51 359.862,51 413.943,51 " fill="none" style="stroke: #383838; stroke-width: 1.0;"/><polygon fill="#FFFFFF" points="238.693,51,244.693,55,250.693,51,244.693,47,238.693,51" style="stroke: #383838; stroke-width: 1.0;"/><text fill="#000000" font-family="sans-serif" font-size="13" lengthAdjust="spacingAndGlyphs" textLength="8" x="247.1441" y="46.4594">1</text><text fill="#000000" font-family="sans-serif" font-size="13" lengthAdjust="spacingAndGlyphs" textLength="7" x="399.2895" y="46.2631">*</text><path d="M122.25,107.6729 C122.25,123.8583 122.25,140.6619 122.25,153.6717 " fill="none" style="stroke: #383838; stroke-width: 1.0;"/><polygon fill="#383838" points="122.25,94.319,118.25,100.319,122.25,106.319,126.25,100.319,122.25,94.319" style="stroke: #383838; stroke-width: 1.0;"/><path d="M430.69,87.087 C401.106,108.4622 364.139,135.1725 338.212,153.9058 " fill="none" style="stroke: #383838; stroke-width: 1.0;"/><polygon fill="none" points="426.805,81.258,447.115,75.219,435.004,92.606,426.805,81.258" style="stroke: #383838; stroke-width: 1.0;"/><path d="M479.25,95.406 C479.25,115.0752 479.25,137.5361 479.25,153.9058 " fill="none" style="stroke: #383838; stroke-width: 1.0;"/><polygon fill="none" points="472.25,95.219,479.25,75.219,486.25,95.219,472.25,95.219" style="stroke: #383838; stroke-width: 1.0;"/><path d="M529.066,86.788 C559.746,108.2124 598.228,135.085 625.179,153.9058 " fill="none" style="stroke: #383838; stroke-width: 1.0;"/><polygon fill="none" points="524.889,92.409,512.499,75.219,532.904,80.93,524.889,92.409" style="stroke: #383838; stroke-width: 1.0;"/></g></svg>