<?xml version="1.0" encoding="UTF-8" standalone="no"?><svg xmlns="http://www.w3.org/2000/svg" xmlns:xlink="http://www.w3.org/1999/xlink" contentScriptType="application/ecmascript" contentStyleType="text/css" height="255px" preserveAspectRatio="none" style="width:535px;height:255px;" version="1.1" viewBox="0 0 535 255" width="535px" zoomAndPan="magnify"><defs><filter height="300%" id="frth09q" width="300%" x="-1" y="-1"><feGaussianBlur result="blurOut" stdDeviation="2.0"/><feColorMatrix in="blurOut" result="blurOut2" type="matrix" values="0 0 0 0 0 0 0 0 0 0 0 0 0 0 0 0 0 0 .4 0"/><feOffset dx="4.0" dy="4.0" in="blurOut2" result="blurOut3"/><feBlend in="SourceGraphic" in2="blurOut3" mode="normal"/></filter></defs><g><!--class TGuiQtAgent--><rect fill="#F8F8F8" filter="url(#frth09q)" height="112.0234" style="stroke: #383838; stroke-width: 1.5;" width="225" x="183.75" y="8"/><ellipse cx="253" cy="24" fill="#C2C2C2" rx="11" ry="11" style="stroke: #383838; stroke-width: 1.0;"/><path d="M255.9688,29.6406 Q255.3906,29.9375 254.75,30.0859 Q254.1094,30.2344 253.4063,30.2344 Q250.9063,30.2344 249.5859,28.5859 Q248.2656,26.9375 248.2656,23.8125 Q248.2656,20.6875 249.5859,19.0313 Q250.9063,17.375 253.4063,17.375 Q254.1094,17.375 254.7578,17.5313 Q255.4063,17.6875 255.9688,17.9844 L255.9688,20.7031 Q255.3438,20.125 254.75,19.8516 Q254.1563,19.5781 253.5313,19.5781 Q252.1875,19.5781 251.5,20.6484 Q250.8125,21.7188 250.8125,23.8125 Q250.8125,25.9063 251.5,26.9766 Q252.1875,28.0469 253.5313,28.0469 Q254.1563,28.0469 254.75,27.7734 Q255.3438,27.5 255.9688,26.9219 L255.9688,29.6406 Z "/><text fill="#000000" font-family="sans-serif" font-size="12" lengthAdjust="spacingAndGlyphs" textLength="78" x="273.5" y="28.1543">TGuiQtAgent</text><line style="stroke: #383838; stroke-width: 1.5;" x1="184.75" x2="407.75" y1="40" y2="40"/><rect fill="none" height="6" style="stroke: #595959; stroke-width: 1.0;" width="6" x="191.75" y="48.9023"/><text fill="#000000" font-family="sans-serif" font-size="11" lengthAdjust="spacingAndGlyphs" textLength="167" x="203.75" y="54.2104">m_systemTray: TSystemTray</text><rect fill="none" height="6" style="stroke: #595959; stroke-width: 1.0;" width="6" x="191.75" y="61.707"/><text fill="#000000" font-family="sans-serif" font-size="11" lengthAdjust="spacingAndGlyphs" textLength="163" x="203.75" y="67.0151">m_mainWindow: MainWindow</text><rect fill="none" height="6" style="stroke: #595959; stroke-width: 1.0;" width="6" x="191.75" y="74.5117"/><text fill="#000000" font-family="sans-serif" font-size="11" lengthAdjust="spacingAndGlyphs" textLength="199" x="203.75" y="79.8198">m_settingsWidget: TSettingsWidget</text><line style="stroke: #383838; stroke-width: 1.5;" x1="184.75" x2="407.75" y1="86.4141" y2="86.4141"/><ellipse cx="194.75" cy="98.3164" fill="#A6A6A6" rx="3" ry="3" style="stroke: #545454; stroke-width: 1.0;"/><text fill="#000000" font-family="sans-serif" font-size="11" lengthAdjust="spacingAndGlyphs" textLength="25" x="203.75" y="100.6245">init()</text><ellipse cx="194.75" cy="111.1211" fill="#A6A6A6" rx="3" ry="3" style="stroke: #545454; stroke-width: 1.0;"/><text fill="#000000" font-family="sans-serif" font-size="11" lengthAdjust="spacingAndGlyphs" textLength="38" x="203.75" y="113.4292">show()</text><!--class TSystemTray--><rect fill="#F8F8F8" filter="url(#frth09q)" height="48" style="stroke: #383838; stroke-width: 1.5;" width="110" x="97" y="198"/><ellipse cx="112" cy="214" fill="#C2C2C2" rx="11" ry="11" style="stroke: #383838; stroke-width: 1.0;"/><path d="M114.9688,219.6406 Q114.3906,219.9375 113.75,220.0859 Q113.1094,220.2344 112.4063,220.2344 Q109.9063,220.2344 108.5859,218.5859 Q107.2656,216.9375 107.2656,213.8125 Q107.2656,210.6875 108.5859,209.0313 Q109.9063,207.375 112.4063,207.375 Q113.1094,207.375 113.7578,207.5313 Q114.4063,207.6875 114.9688,207.9844 L114.9688,210.7031 Q114.3438,210.125 113.75,209.8516 Q113.1563,209.5781 112.5313,209.5781 Q111.1875,209.5781 110.5,210.6484 Q109.8125,211.7188 109.8125,213.8125 Q109.8125,215.9063 110.5,216.9766 Q111.1875,218.0469 112.5313,218.0469 Q113.1563,218.0469 113.75,217.7734 Q114.3438,217.5 114.9688,216.9219 L114.9688,219.6406 Z "/><text fill="#000000" font-family="sans-serif" font-size="12" lengthAdjust="spacingAndGlyphs" textLength="78" x="126" y="218.1543">TSystemTray</text><line style="stroke: #383838; stroke-width: 1.5;" x1="98" x2="206" y1="230" y2="230"/><line style="stroke: #383838; stroke-width: 1.5;" x1="98" x2="206" y1="238" y2="238"/><!--class MainWindow--><rect fill="#F8F8F8" filter="url(#frth09q)" height="48" style="stroke: #383838; stroke-width: 1.5;" width="108" x="242" y="198"/><ellipse cx="257" cy="214" fill="#C2C2C2" rx="11" ry="11" style="stroke: #383838; stroke-width: 1.0;"/><path d="M259.9688,219.6406 Q259.3906,219.9375 258.75,220.0859 Q258.1094,220.2344 257.4063,220.2344 Q254.9063,220.2344 253.5859,218.5859 Q252.2656,216.9375 252.2656,213.8125 Q252.2656,210.6875 253.5859,209.0313 Q254.9063,207.375 257.4063,207.375 Q258.1094,207.375 258.7578,207.5313 Q259.4063,207.6875 259.9688,207.9844 L259.9688,210.7031 Q259.3438,210.125 258.75,209.8516 Q258.1563,209.5781 257.5313,209.5781 Q256.1875,209.5781 255.5,210.6484 Q254.8125,211.7188 254.8125,213.8125 Q254.8125,215.9063 255.5,216.9766 Q256.1875,218.0469 257.5313,218.0469 Q258.1563,218.0469 258.75,217.7734 Q259.3438,217.5 259.9688,216.9219 L259.9688,219.6406 Z "/><text fill="#000000" font-family="sans-serif" font-size="12" lengthAdjust="spacingAndGlyphs" textLength="76" x="271" y="218.1543">MainWindow</text><line style="stroke: #383838; stroke-width: 1.5;" x1="243" x2="349" y1="230" y2="230"/><line style="stroke: #383838; stroke-width: 1.5;" x1="243" x2="349" y1="238" y2="238"/><!--class TSettingsWidget--><rect fill="#F8F8F8" filter="url(#frth09q)" height="48" style="stroke: #383838; stroke-width: 1.5;" width="134" x="385" y="198"/><ellipse cx="400" cy="214" fill="#C2C2C2" rx="11" ry="11" style="stroke: #383838; stroke-width: 1.0;"/><path d="M402.9688,219.6406 Q402.3906,219.9375 401.75,220.0859 Q401.1094,220.2344 400.4063,220.2344 Q397.9063,220.2344 396.5859,218.5859 Q395.2656,216.9375 395.2656,213.8125 Q395.2656,210.6875 396.5859,209.0313 Q397.9063,207.375 400.4063,207.375 Q401.1094,207.375 401.7578,207.5313 Q402.4063,207.6875 402.9688,207.9844 L402.9688,210.7031 Q402.3438,210.125 401.75,209.8516 Q401.1563,209.5781 400.5313,209.5781 Q399.1875,209.5781 398.5,210.6484 Q397.8125,211.7188 397.8125,213.8125 Q397.8125,215.9063 398.5,216.9766 Q399.1875,218.0469 400.5313,218.0469 Q401.1563,218.0469 401.75,217.7734 Q402.3438,217.5 402.9688,216.9219 L402.9688,219.6406 Z "/><text fill="#000000" font-family="sans-serif" font-size="12" lengthAdjust="spacingAndGlyphs" textLength="102" x="414" y="218.1543">TSettingsWidget</text><line style="stroke: #383838; stroke-width: 1.5;" x1="386" x2="518" y1="230" y2="230"/><line style="stroke: #383838; stroke-width: 1.5;" x1="386" x2="518" y1="238" y2="238"/><!--class TApplication--><rect fill="#F8F8F8" filter="url(#frth09q)" height="48" style="stroke: #383838; stroke-width: 1.5;" width="108" x="6" y="40"/><ellipse cx="21" cy="56" fill="#C2C2C2" rx="11" ry="11" style="stroke: #383838; stroke-width: 1.0;"/><path d="M23.9688,61.6406 Q23.3906,61.9375 22.75,62.0859 Q22.1094,62.2344 21.4063,62.2344 Q18.9063,62.2344 17.5859,60.5859 Q16.2656,58.9375 16.2656,55.8125 Q16.2656,52.6875 17.5859,51.0313 Q18.9063,49.375 21.4063,49.375 Q22.1094,49.375 22.7578,49.5313 Q23.4063,49.6875 23.9688,49.9844 L23.9688,52.7031 Q23.3438,52.125 22.75,51.8516 Q22.1563,51.5781 21.5313,51.5781 Q20.1875,51.5781 19.5,52.6484 Q18.8125,53.7188 18.8125,55.8125 Q18.8125,57.9063 19.5,58.9766 Q20.1875,60.0469 21.5313,60.0469 Q22.1563,60.0469 22.75,59.7734 Q23.3438,59.5 23.9688,58.9219 L23.9688,61.6406 Z "/><text fill="#000000" font-family="sans-serif" font-size="12" lengthAdjust="spacingAndGlyphs" textLength="76" x="35" y="60.1543">TApplication</text><line style="stroke: #383838; stroke-width: 1.5;" x1="7" x2="113" y1="72" y2="72"/><line style="stroke: #383838; stroke-width: 1.5;" x1="7" x2="113" y1="80" y2="80"/><path d="M210.674,129.114 C203.675,135.823 196.998,142.825 191,150 C178.913,164.4586 168.794,183.2339 161.895,197.8454 " fill="none" style="stroke: #383838; stroke-width: 1.0;"/><polygon fill="#FFFFFF" points="220.384,120.158,213.2617,121.2859,211.5634,128.2942,218.6858,127.1663,220.384,120.158" style="stroke: #383838; stroke-width: 1.0;"/><text fill="#000000" font-family="sans-serif" font-size="13" lengthAdjust="spacingAndGlyphs" textLength="94" x="192" y="163.0669">m_systemTray</text><path d="M296,133.469 C296,156.5596 296,180.7819 296,197.8767 " fill="none" style="stroke: #383838; stroke-width: 1.0;"/><polygon fill="#FFFFFF" points="296,120.439,292,126.439,296,132.439,300,126.439,296,120.439" style="stroke: #383838; stroke-width: 1.0;"/><text fill="#000000" font-family="sans-serif" font-size="13" lengthAdjust="spacingAndGlyphs" textLength="99" x="297" y="163.0669">m_mainWindow</text><path d="M384.186,128.684 C391.876,135.543 399.278,142.695 406,150 C419.327,164.482 431.306,183.2562 439.696,197.8614 " fill="none" style="stroke: #383838; stroke-width: 1.0;"/><polygon fill="#FFFFFF" points="374.322,120.162,376.2473,127.1113,383.4026,128.0069,381.4773,121.0576,374.322,120.162" style="stroke: #383838; stroke-width: 1.0;"/><text fill="#000000" font-family="sans-serif" font-size="13" lengthAdjust="spacingAndGlyphs" textLength="114" x="420" y="163.0669">m_settingsWidget</text><path d="M114.391,64 C135.735,64 157.08,64 178.425,64 " fill="none" style="stroke: #383838; stroke-width: 1.0; stroke-dasharray: 7.0,7.0;"/><polygon fill="#383838" points="183.558,64,174.558,60,178.558,64,174.558,68,183.558,64" style="stroke: #383838; stroke-width: 1.0;"/></g></svg>