<?xml version="1.0" encoding="UTF-8" standalone="no"?><svg xmlns="http://www.w3.org/2000/svg" xmlns:xlink="http://www.w3.org/1999/xlink" contentScriptType="application/ecmascript" contentStyleType="text/css" height="212px" preserveAspectRatio="none" style="width:473px;height:212px;" version="1.1" viewBox="0 0 473 212" width="473px" zoomAndPan="magnify"><defs><filter height="300%" id="fcinuxh" width="300%" x="-1" y="-1"><feGaussianBlur result="blurOut" stdDeviation="2.0"/><feColorMatrix in="blurOut" result="blurOut2" type="matrix" values="0 0 0 0 0 0 0 0 0 0 0 0 0 0 0 0 0 0 .4 0"/><feOffset dx="4.0" dy="4.0" in="blurOut2" result="blurOut3"/><feBlend in="SourceGraphic" in2="blurOut3" mode="normal"/></filter></defs><g><!--class TEyesReaxPlugin--><rect fill="#F8F8F8" filter="url(#fcinuxh)" height="73.6094" style="stroke: #383838; stroke-width: 1.5;" width="136" x="6" y="8"/><ellipse cx="21" cy="24" fill="#C2C2C2" rx="11" ry="11" style="stroke: #383838; stroke-width: 1.0;"/><path d="M23.9688,29.6406 Q23.3906,29.9375 22.75,30.0859 Q22.1094,30.2344 21.4063,30.2344 Q18.9063,30.2344 17.5859,28.5859 Q16.2656,26.9375 16.2656,23.8125 Q16.2656,20.6875 17.5859,19.0313 Q18.9063,17.375 21.4063,17.375 Q22.1094,17.375 22.7578,17.5313 Q23.4063,17.6875 23.9688,17.9844 L23.9688,20.7031 Q23.3438,20.125 22.75,19.8516 Q22.1563,19.5781 21.5313,19.5781 Q20.1875,19.5781 19.5,20.6484 Q18.8125,21.7188 18.8125,23.8125 Q18.8125,25.9063 19.5,26.9766 Q20.1875,28.0469 21.5313,28.0469 Q22.1563,28.0469 22.75,27.7734 Q23.3438,27.5 23.9688,26.9219 L23.9688,29.6406 Z "/><text fill="#000000" font-family="sans-serif" font-size="12" lengthAdjust="spacingAndGlyphs" textLength="104" x="35" y="28.1543">TEyesReaxPlugin</text><line style="stroke: #383838; stroke-width: 1.5;" x1="7" x2="141" y1="40" y2="40"/><rect fill="none" height="6" style="stroke: #595959; stroke-width: 1.0;" width="6" x="14" y="48.9023"/><text fill="#000000" font-family="sans-serif" font-size="11" lengthAdjust="spacingAndGlyphs" textLength="29" x="26" y="54.2104">state</text><line style="stroke: #383838; stroke-width: 1.5;" x1="7" x2="141" y1="60.8047" y2="60.8047"/><ellipse cx="17" cy="72.707" fill="#A6A6A6" rx="3" ry="3" style="stroke: #545454; stroke-width: 1.0;"/><text fill="#000000" font-family="sans-serif" font-size="11" lengthAdjust="spacingAndGlyphs" textLength="47" x="26" y="75.0151">update()</text><!--class IAbstractState--><rect fill="#F8F8F8" filter="url(#fcinuxh)" height="60.8047" style="stroke: #383838; stroke-width: 1.5;" width="122" x="177" y="14.5"/><ellipse cx="192" cy="30.5" fill="#C2C2C2" rx="11" ry="11" style="stroke: #383838; stroke-width: 1.0;"/><path d="M194.9688,36.1406 Q194.3906,36.4375 193.75,36.5859 Q193.1094,36.7344 192.4063,36.7344 Q189.9063,36.7344 188.5859,35.0859 Q187.2656,33.4375 187.2656,30.3125 Q187.2656,27.1875 188.5859,25.5313 Q189.9063,23.875 192.4063,23.875 Q193.1094,23.875 193.7578,24.0313 Q194.4063,24.1875 194.9688,24.4844 L194.9688,27.2031 Q194.3438,26.625 193.75,26.3516 Q193.1563,26.0781 192.5313,26.0781 Q191.1875,26.0781 190.5,27.1484 Q189.8125,28.2188 189.8125,30.3125 Q189.8125,32.4063 190.5,33.4766 Q191.1875,34.5469 192.5313,34.5469 Q193.1563,34.5469 193.75,34.2734 Q194.3438,34 194.9688,33.4219 L194.9688,36.1406 Z "/><text fill="#000000" font-family="sans-serif" font-size="12" lengthAdjust="spacingAndGlyphs" textLength="90" x="206" y="34.6543">IAbstractState</text><line style="stroke: #383838; stroke-width: 1.5;" x1="178" x2="298" y1="46.5" y2="46.5"/><line style="stroke: #383838; stroke-width: 1.5;" x1="178" x2="298" y1="54.5" y2="54.5"/><ellipse cx="188" cy="66.4023" fill="#A6A6A6" rx="3" ry="3" style="stroke: #545454; stroke-width: 1.0;"/><text fill="#000000" font-family="sans-serif" font-size="11" lengthAdjust="spacingAndGlyphs" textLength="47" x="197" y="68.7104">update()</text><!--class TStateWaiting--><rect fill="#F8F8F8" filter="url(#fcinuxh)" height="60.8047" style="stroke: #383838; stroke-width: 1.5;" width="119" x="17.75" y="142.5"/><ellipse cx="32.75" cy="158.5" fill="#C2C2C2" rx="11" ry="11" style="stroke: #383838; stroke-width: 1.0;"/><path d="M35.7188,164.1406 Q35.1406,164.4375 34.5,164.5859 Q33.8594,164.7344 33.1563,164.7344 Q30.6563,164.7344 29.3359,163.0859 Q28.0156,161.4375 28.0156,158.3125 Q28.0156,155.1875 29.3359,153.5313 Q30.6563,151.875 33.1563,151.875 Q33.8594,151.875 34.5078,152.0313 Q35.1563,152.1875 35.7188,152.4844 L35.7188,155.2031 Q35.0938,154.625 34.5,154.3516 Q33.9063,154.0781 33.2813,154.0781 Q31.9375,154.0781 31.25,155.1484 Q30.5625,156.2188 30.5625,158.3125 Q30.5625,160.4063 31.25,161.4766 Q31.9375,162.5469 33.2813,162.5469 Q33.9063,162.5469 34.5,162.2734 Q35.0938,162 35.7188,161.4219 L35.7188,164.1406 Z "/><text fill="#000000" font-family="sans-serif" font-size="12" lengthAdjust="spacingAndGlyphs" textLength="87" x="46.75" y="162.6543">TStateWaiting</text><line style="stroke: #383838; stroke-width: 1.5;" x1="18.75" x2="135.75" y1="174.5" y2="174.5"/><line style="stroke: #383838; stroke-width: 1.5;" x1="18.75" x2="135.75" y1="182.5" y2="182.5"/><ellipse cx="28.75" cy="194.4023" fill="#A6A6A6" rx="3" ry="3" style="stroke: #545454; stroke-width: 1.0;"/><text fill="#000000" font-family="sans-serif" font-size="11" lengthAdjust="spacingAndGlyphs" textLength="47" x="37.75" y="196.7104">update()</text><!--class TStateReminder--><rect fill="#F8F8F8" filter="url(#fcinuxh)" height="60.8047" style="stroke: #383838; stroke-width: 1.5;" width="132" x="172" y="142.5"/><ellipse cx="187" cy="158.5" fill="#C2C2C2" rx="11" ry="11" style="stroke: #383838; stroke-width: 1.0;"/><path d="M189.9688,164.1406 Q189.3906,164.4375 188.75,164.5859 Q188.1094,164.7344 187.4063,164.7344 Q184.9063,164.7344 183.5859,163.0859 Q182.2656,161.4375 182.2656,158.3125 Q182.2656,155.1875 183.5859,153.5313 Q184.9063,151.875 187.4063,151.875 Q188.1094,151.875 188.7578,152.0313 Q189.4063,152.1875 189.9688,152.4844 L189.9688,155.2031 Q189.3438,154.625 188.75,154.3516 Q188.1563,154.0781 187.5313,154.0781 Q186.1875,154.0781 185.5,155.1484 Q184.8125,156.2188 184.8125,158.3125 Q184.8125,160.4063 185.5,161.4766 Q186.1875,162.5469 187.5313,162.5469 Q188.1563,162.5469 188.75,162.2734 Q189.3438,162 189.9688,161.4219 L189.9688,164.1406 Z "/><text fill="#000000" font-family="sans-serif" font-size="12" lengthAdjust="spacingAndGlyphs" textLength="100" x="201" y="162.6543">TStateReminder</text><line style="stroke: #383838; stroke-width: 1.5;" x1="173" x2="303" y1="174.5" y2="174.5"/><line style="stroke: #383838; stroke-width: 1.5;" x1="173" x2="303" y1="182.5" y2="182.5"/><ellipse cx="183" cy="194.4023" fill="#A6A6A6" rx="3" ry="3" style="stroke: #545454; stroke-width: 1.0;"/><text fill="#000000" font-family="sans-serif" font-size="11" lengthAdjust="spacingAndGlyphs" textLength="47" x="192" y="196.7104">update()</text><!--class TStateIdleness--><rect fill="#F8F8F8" filter="url(#fcinuxh)" height="60.8047" style="stroke: #383838; stroke-width: 1.5;" width="125" x="339.75" y="142.5"/><ellipse cx="354.75" cy="158.5" fill="#C2C2C2" rx="11" ry="11" style="stroke: #383838; stroke-width: 1.0;"/><path d="M357.7188,164.1406 Q357.1406,164.4375 356.5,164.5859 Q355.8594,164.7344 355.1563,164.7344 Q352.6563,164.7344 351.3359,163.0859 Q350.0156,161.4375 350.0156,158.3125 Q350.0156,155.1875 351.3359,153.5313 Q352.6563,151.875 355.1563,151.875 Q355.8594,151.875 356.5078,152.0313 Q357.1563,152.1875 357.7188,152.4844 L357.7188,155.2031 Q357.0938,154.625 356.5,154.3516 Q355.9063,154.0781 355.2813,154.0781 Q353.9375,154.0781 353.25,155.1484 Q352.5625,156.2188 352.5625,158.3125 Q352.5625,160.4063 353.25,161.4766 Q353.9375,162.5469 355.2813,162.5469 Q355.9063,162.5469 356.5,162.2734 Q357.0938,162 357.7188,161.4219 L357.7188,164.1406 Z "/><text fill="#000000" font-family="sans-serif" font-size="12" lengthAdjust="spacingAndGlyphs" textLength="93" x="368.75" y="162.6543">TStateIdleness</text><line style="stroke: #383838; stroke-width: 1.5;" x1="340.75" x2="463.75" y1="174.5" y2="174.5"/><line style="stroke: #383838; stroke-width: 1.5;" x1="340.75" x2="463.75" y1="182.5" y2="182.5"/><ellipse cx="350.75" cy="194.4023" fill="#A6A6A6" rx="3" ry="3" style="stroke: #545454; stroke-width: 1.0;"/><text fill="#000000" font-family="sans-serif" font-size="11" lengthAdjust="spacingAndGlyphs" textLength="47" x="359.75" y="196.7104">update()</text><path d="M155.402,45 C162.483,45 169.564,45 176.645,45 " fill="none" style="stroke: #383838; stroke-width: 1.0;"/><polygon fill="#FFFFFF" points="142.227,45,148.227,49,154.227,45,148.227,41,142.227,45" style="stroke: #383838; stroke-width: 1.0;"/><path d="M184.349,87.987 C161.554,105.8277 135.513,126.2068 114.789,142.4256 " fill="none" style="stroke: #383838; stroke-width: 1.0;"/><polygon fill="none" points="180.188,82.355,200.253,75.541,188.817,93.38,180.188,82.355" style="stroke: #383838; stroke-width: 1.0;"/><path d="M238,95.578 C238,111.3456 238,128.29 238,142.2071 " fill="none" style="stroke: #383838; stroke-width: 1.0;"/><polygon fill="none" points="231,95.541,238,75.541,245,95.541,231,95.541" style="stroke: #383838; stroke-width: 1.0;"/><path d="M292.312,87.728 C315.613,105.6297 342.294,126.1281 363.506,142.4256 " fill="none" style="stroke: #383838; stroke-width: 1.0;"/><polygon fill="none" points="288.046,93.277,276.451,75.541,296.575,82.175,288.046,93.277" style="stroke: #383838; stroke-width: 1.0;"/></g></svg>